# xmcd CD database file
#
# Track frame offsets:
#	150
#	38625
#	63009
#	91384
#	118429
#	148333
#	196578
#	236181
#	285034
#	316358
#
# Disc length: 4592 seconds
#
# Revision: 0
# Processed by: cddbd v1.5PL3 Copyright (c) Steve Scherf et al.
# Submitted via: CDex 1.51
#
DISCID=8911ee0a
DTITLE=John Coltraine - ANTHOLOGY 1956-1958
DYEAR=1900
DGENRE=Jazz
TTITLE0=John Coltrane - Trane's Blues
TTITLE1=John Coltrane - Soultrane
TTITLE2=John Coltrane - Violets For Your Furs
TTITLE3=John Coltrane - I Hear A Rhapsody
TTITLE4=John Coltrane - Nutty
TTITLE5=John Coltrane - Blue Train
TTITLE6=John Coltrane - Come Rain Or Shine
TTITLE7=John Coltrane - I Want To Talk About You
TTITLE8=John Coltrane - Spring Is Here
TTITLE9=John Coltrane - Just Friends
EXTD=
EXTT0=
EXTT1=
EXTT2=
EXTT3=
EXTT4=
EXTT5=
EXTT6=
EXTT7=
EXTT8=
EXTT9=
PLAYORDER=
